<mxfile host="app.diagrams.net" modified="2023-12-30T12:45:21.484Z" agent="Mozilla/5.0 (Windows NT 10.0; Win64; x64) AppleWebKit/537.36 (KHTML, like Gecko) Chrome/120.0.0.0 Safari/537.36" version="22.1.16" etag="kDAQ3ihmubL1iZ3nQSRF" type="github">
  <diagram name="페이지-1" id="ePJ-q-g8oZ2xV-O-CN2O">
    <mxGraphModel>
      <root>
        <mxCell id="0" />
        <mxCell id="1" parent="0" />
      </root>
    </mxGraphModel>
  </diagram>
</mxfile>
